# xmcd
#
# Track frame offsets:
#	150
#	17781
#	36861
#	55315
#	70190
#	86167
#	105083
#	123220
#	139918
#	156474
#	179336
#	194113
#	213061
#	229244
#	250472
#	268356
#
# Disc length: 3901 seconds
#
# Revision: 0
# Processed by: cddbd v1.5.2PL0 Copyright (c) Steve Scherf et al.
# Submitted via: EZCDAudioConverter 8.3.2.1
#
DISCID=ee0f3b10
DTITLE=黄安 - 黄安 - 新鸳鸯蝴蝶梦双CD  B
DYEAR=2000
DGENRE=流行
TTITLE0=月光华华
TTITLE1=风风雨雨来时路
TTITLE2=东南西北风
TTITLE3=明天会吹什么风
TTITLE4=美人风筝
TTITLE5=福星高照
TTITLE6=野火在轻轻的烧
TTITLE7=回头是岸
TTITLE8=匆匆
TTITLE9=轮回
TTITLE10=带子郎
TTITLE11=传灯
TTITLE12=无来去无代志
TTITLE13=先知
TTITLE14=只要年轻就有梦
TTITLE15=传灯（心经版）
EXTD=
EXTT0=
EXTT1=
EXTT2=
EXTT3=
EXTT4=
EXTT5=
EXTT6=
EXTT7=
EXTT8=
EXTT9=
EXTT10=
EXTT11=
EXTT12=
EXTT13=
EXTT14=
EXTT15=
PLAYORDER=
